# xmcd
# 
# Track frame offsets:
#     150
#     20000
#     35095
#     57265
#     79715
#     97135
#     114012
#     130000
#     149417
#     168385
# 
# Disc length: 2505
# 
# Revision: 3
# Processed by: cddbd v1.5.2PL0 Copyright (c) Steve Scherf et al.
# Submitted via: fre:ac v1.0.27
# 
DISCID=8309c70a
DTITLE=松任谷由実 - Delight Slight Light KISS
DYEAR=1988
DGENRE=JPop
TTITLE0=リフレインが叫んでる
TTITLE1=Nobody Else
TTITLE2=ふってあげる
TTITLE3=誕生日おめでとう
TTITLE4=Home Townへようこそ
TTITLE5=とこしえにGood Night（夜明けの色）
TTITLE6=恋はNo-return
TTITLE7=幸せはあなたへの復讐
TTITLE8=吹雪の中を
TTITLE9=September Blue Moon
EXTD=
EXTT0=
EXTT1=
EXTT2=
EXTT3=
EXTT4=
EXTT5=
EXTT6=
EXTT7=
EXTT8=
EXTT9=
PLAYORDER=
